<?xml version="1.0" encoding="utf-8"?>
<!-- Generator: Adobe Illustrator 15.0.0, SVG Export Plug-In . SVG Version: 6.00 Build 0)  -->
<!DOCTYPE svg PUBLIC "-//W3C//DTD SVG 1.1//EN" "http://www.w3.org/Graphics/SVG/1.1/DTD/svg11.dtd">
<svg version="1.1" id="Layer_1" xmlns="http://www.w3.org/2000/svg" xmlns:xlink="http://www.w3.org/1999/xlink" x="0px" y="0px"
	 width="168px" height="30px" viewBox="0 0 168 30" enable-background="new 0 0 168 30" xml:space="preserve">
<path fill="#030202" d="M11.025,13.745c0,2.146-1.25,3.229-2.916,3.229c-1.035,0-1.987-0.478-1.987-1.588
	c0-1.14,0.98-1.535,2.042-1.826l2.862-0.798L11.025,13.745L11.025,13.745z M15.111,9.245c-0.03-3.177-2.504-4.077-6.456-4.077
	c-1.961,0-5.829,0.371-5.966,4.421h4.086c0.002-1.054,0.858-1.908,1.913-1.905c0.108,0,0.215,0.009,0.322,0.028
	c1.145,0,2.016,0.447,2.016,1.507v1.163l-1.555,0.211c-4.63,0.635-7.437,1.828-7.437,5.216c0,2.698,2.071,4.18,4.849,4.18
	c1.526,0,3.649-0.713,4.358-1.824h0.055c0.023,0.494,0.114,0.984,0.269,1.455h3.928c-0.307-0.948-0.437-1.943-0.381-2.939
	L15.111,9.245z M18.238,19.619h4.25v-8.151c0-1.563,1.007-1.987,3.541-2.277l0.465-0.052l-0.028-3.654
	c-1.449,0.061-2.841,0.58-3.977,1.481V5.538H18.24L18.238,19.619z M41.452,5.539H37.53v1.298h-0.055
	c-0.964-1.123-2.39-1.737-3.868-1.667c-3.433,0-6.211,2.435-6.211,6.935c0,5.295,2.289,7.887,6.186,7.887
	c1.305,0.033,2.577-0.42,3.568-1.271h0.055v5.561h4.248L41.452,5.539L41.452,5.539z M37.311,12.582c0,2.41-0.764,4.396-2.942,4.396
	c-2.18,0-2.941-1.986-2.941-4.847c0-1.906,0.763-3.945,2.889-3.945C36.439,8.188,37.311,10.169,37.311,12.582 M57.271,5.539h-4.25
	v8.921c0.083,1.133-0.767,2.118-1.898,2.202c-0.122,0.008-0.243,0.007-0.363-0.006c-1.609,0-2.072-0.661-2.072-1.907v-9.21h-4.25
	v10.404c0,2.117,0.954,4.051,4.386,4.051c1.562,0.063,3.08-0.521,4.195-1.617v1.243h4.25V5.539H57.271z M60.357,19.619h4.25V5.539
	h-4.25V19.619z M75.873,13.745c0,2.146-1.251,3.229-2.915,3.229c-1.035,0-1.989-0.478-1.989-1.588c0-1.14,0.985-1.535,2.042-1.826
	l2.862-0.794V13.745z M79.959,9.245c-0.03-3.177-2.503-4.077-6.457-4.077c-1.962,0-5.83,0.371-5.966,4.421h4.086
	c0.002-1.054,0.859-1.908,1.913-1.905c0.108,0,0.216,0.009,0.322,0.028c1.145,0,2.016,0.447,2.016,1.507v1.163l-1.554,0.211
	c-4.63,0.637-7.437,1.828-7.437,5.216c0,2.698,2.071,4.18,4.848,4.18c1.527,0,3.65-0.713,4.359-1.824h0.055
	c0.023,0.494,0.113,0.984,0.268,1.455h3.923c-0.307-0.948-0.435-1.943-0.38-2.939L79.959,9.245z M90.029,19.619h1.697v-2.038h0.058
	c0.67,1.541,2.239,2.489,3.914,2.371c2.413,0,5.786-1.88,5.786-6.781c0-4.629-2.58-7.11-5.699-7.11
	c-1.694-0.104-3.28,0.834-4.001,2.37h-0.058V0h-1.697V19.619L90.029,19.619z M99.785,13.007c0,3.334-1.674,5.401-4.11,5.401
	c-3.176,0-4.022-2.813-4.022-5.401c0-2.591,0.681-5.403,3.912-5.403c2.554,0,4.228,2.068,4.228,5.403 M104.465,16.426
	c0-1.488,1.079-2.123,2.439-2.482l4.906-1.32v1.518c0,3.198-2.922,4.272-4.565,4.272c-1.274,0-2.779-0.522-2.779-1.985
	 M115.469,18.413c-1.16,0-1.955-0.028-1.955-1.736v-6.479c0-1.296,0-4.135-5.048-4.135c-3.032,0-4.796,1.405-5.364,4.242l1.93,0.332
	c0.054-2.123,1.104-3.198,3.373-3.198c2.154,0,3.402,0.716,3.402,2.425v1.323l-4.168,1.049c-2.354,0.579-4.88,1.405-4.88,4.217
	c0,2.425,2.128,3.499,4.339,3.499c1.935,0.155,3.786-0.81,4.767-2.481h0.053c0.174,2.316,1.447,2.316,3.546,2.316L115.469,18.413z
	 M116.848,19.625h1.697v-7.72c0-2.977,1.846-4.3,3.885-4.3c2.153,0,3.318,0.884,3.318,3.555v8.459h1.695v-8.956
	c0-2.728-1.444-4.601-4.791-4.601c-1.678-0.099-3.258,0.782-4.053,2.258h-0.059V6.393h-1.698L116.848,19.625z M141.341,9.345
	c-0.923-2.055-2.995-3.35-5.247-3.279c-3.914,0-6.494,2.782-6.551,6.945c0.057,4.161,2.75,6.946,6.152,6.946
	c2.33,0.146,4.506-1.16,5.475-3.282l-1.73-0.412c-0.733,1.372-2.188,2.205-3.742,2.144c-2.153,0-4.452-1.762-4.452-5.4
	c0-3.637,2.299-5.403,4.623-5.403c1.553-0.133,3.03,0.685,3.743,2.067L141.341,9.345z M144.121,16.426
	c0-1.488,1.077-2.123,2.438-2.482l4.907-1.32v1.518c0,3.198-2.922,4.272-4.565,4.272c-1.277,0-2.778-0.522-2.778-1.985
	 M155.125,18.408c-1.16,0-1.956-0.027-1.956-1.738v-6.474c0-1.296,0-4.135-5.047-4.135c-3.035,0-4.793,1.405-5.364,4.243l1.93,0.33
	c0.057-2.121,1.105-3.196,3.375-3.196c2.153,0,3.403,0.716,3.403,2.425v1.323l-4.172,1.05c-2.353,0.578-4.876,1.405-4.876,4.216
	c0,2.425,2.125,3.5,4.338,3.5c1.934,0.155,3.785-0.81,4.768-2.482h0.057c0.166,2.317,1.441,2.317,3.541,2.317L155.125,18.408
	L155.125,18.408z"/>
</svg>
