<svg xmlns="http://www.w3.org/2000/svg" width="69.428" height="98.137" viewBox="0 0 69.428 98.137"><path fill="#010101" d="M34.714 98.137l-2.373-3.066c-.081-.104-8.104-10.5-16.014-22.911C5.493 55.162 0 42.563 0 34.713 0 15.572 15.573 0 34.714 0c19.142 0 34.714 15.572 34.714 34.713 0 7.85-5.493 20.449-16.327 37.446C45.19 84.57 37.167 94.967 37.087 95.07l-2.373 3.067zm0-92.137C18.881 6 6 18.88 6 34.713c0 12.435 18.927 40.414 28.714 53.555 9.787-13.144 28.714-41.127 28.714-53.555C63.428 18.88 50.547 6 34.714 6zm0 48.574c-10.952 0-19.861-8.91-19.861-19.861-.004-10.951 8.901-19.865 19.853-19.869h.008c10.951 0 19.861 8.911 19.861 19.863 0 10.958-8.91 19.867-19.861 19.867zm-.006-33.73c-7.644.003-13.859 6.224-13.856 13.868 0 7.645 6.218 13.863 13.861 13.863 7.644 0 13.861-6.218 13.861-13.861 0-7.65-6.218-13.869-13.861-13.869"/></svg>