<svg xmlns="http://www.w3.org/2000/svg" width="86.172" height="100.006" viewBox="0 0 86.172 100.006"><path fill="#FFF" d="M67.498 100.006L49.689 82.849a44.795 44.795 0 0 1-6.604.485C19.686 83.72.4 65.069 0 41.671.398 18.271 19.685-.379 43.085.006c23.401-.385 42.688 18.265 43.087 41.665a41.093 41.093 0 0 1-16.209 32.564l12.111 11.674-14.576 14.097zM31.057 59.952l12.019-11.625 12.051 11.625a21.496 21.496 0 0 0 10.364-18.281c-.214-12.166-10.239-21.861-22.406-21.667-12.166-.193-22.19 9.502-22.404 21.667a21.493 21.493 0 0 0 10.376 18.281"/></svg>