<svg xmlns="http://www.w3.org/2000/svg" width="55.145" height="100.031" viewBox="0 0 55.145 100.031"><path fill="#010101" d="M19.478 71.636h10.148v-5.9c0-8.363 5.9-14.123 12.073-20.023 6.586-6.314 13.445-12.76 13.445-22.908 0-11.52-7.375-22.773-26.064-22.773C13.749-.684.741 11.164.026 26.496A31.95 31.95 0 0 0 0 27.32h10.701c.022-9.867 8.038-17.846 17.903-17.824.112 0 .224.002.336.004 7.02-1.031 13.548 3.824 14.579 10.844.141.951.173 1.916.098 2.875a25.414 25.414 0 0 1-10.009 16.867c-6.858 6.727-14.131 13.586-14.131 24.691v6.859zm4.801 28.395a8.784 8.784 0 0 0 0-17.56 8.784 8.784 0 1 0 0 17.56"/></svg>