<svg xmlns="http://www.w3.org/2000/svg" width="27" height="27.001" viewBox="0 0 27 27.001"><path d="M26.586 24.82l-6.275-5.657a11.48 11.48 0 0 0 2.836-7.591C23.146 5.191 17.955 0 11.569 0 5.189.001-.001 5.193 0 11.582c.001 6.38 5.192 11.57 11.571 11.569h.006c2.517-.001 4.911-.8 6.893-2.277l6.439 5.805a1.253 1.253 0 0 0 1.677-1.859zm-15.013-3.338l-.001.835v-.835h-.001c-5.458 0-9.9-4.441-9.9-9.909C1.668 6.114 6.11 1.67 11.575 1.67c5.46 0 9.902 4.442 9.903 9.904a9.846 9.846 0 0 1-2.899 7.005 9.843 9.843 0 0 1-7.006 2.903z"/></svg>